<svg xmlns="http://www.w3.org/2000/svg" viewBox="0 0 200 300">
  <rect x="84" y="6" width="32" height="16" rx="5" fill="none" stroke="#10171C" stroke-width="6"/>
  <rect x="60" y="20" width="80" height="58" rx="5" fill="none" stroke="#10171C" stroke-width="8"/>
  <g stroke="#10171C" stroke-width="5" stroke-linecap="round">
    <line x1="68" y1="27" x2="68" y2="46"/><line x1="77" y1="27" x2="77" y2="46"/><line x1="86" y1="27" x2="86" y2="46"/><line x1="95" y1="27" x2="95" y2="46"/><line x1="105" y1="27" x2="105" y2="46"/><line x1="114" y1="27" x2="114" y2="46"/><line x1="123" y1="27" x2="123" y2="46"/><line x1="132" y1="27" x2="132" y2="46"/>
  </g>
  <path d="M42,80 L158,80 L158,168 L120,246 L120,290 L80,290 L80,246 L42,168 Z" fill="none" stroke="#10171C" stroke-width="8" stroke-linejoin="round"/>
  <circle cx="80" cy="130" r="14" fill="#10171C"/><circle cx="120" cy="130" r="14" fill="#10171C"/>
  <circle cx="83" cy="125" r="4.5" fill="#E6EBEE"/><circle cx="117" cy="125" r="4.5" fill="#E6EBEE"/>
  <path d="M76,156 Q100,174 124,156" fill="none" stroke="#10171C" stroke-width="6.5" stroke-linecap="round"/>
  <g stroke="#10171C" stroke-width="6" stroke-linecap="round">
    <line x1="66" y1="214" x2="134" y2="214"/><line x1="72" y1="226" x2="128" y2="226"/><line x1="78" y1="238" x2="122" y2="238"/>
  </g>
</svg>
